<svg xmlns="http://www.w3.org/2000/svg" width="1600" height="1000" viewBox="0 0 1600 1000">
  <defs>
    <linearGradient id="bg" x1="0" y1="0" x2="1" y2="1">
      <stop offset="0" stop-color="#0b1020"></stop>
      <stop offset="1" stop-color="#070a0f"></stop>
    </linearGradient>
    <linearGradient id="acc" x1="0" y1="0" x2="1" y2="0">
      <stop offset="0" stop-color="#1e90ff" stop-opacity="0.9"></stop>
      <stop offset="1" stop-color="#00c2d1" stop-opacity="0.5"></stop>
    </linearGradient>
    <filter id="blur" x="-20%" y="-20%" width="140%" height="140%">
      <feGaussianBlur stdDeviation="18"></feGaussianBlur>
    </filter>
  </defs>
  <rect width="1600" height="1000" fill="url(#bg)"></rect>
  <circle cx="420" cy="240" r="240" fill="#1e90ff" opacity="0.18" filter="url(#blur)"></circle>
  <circle cx="1240" cy="720" r="300" fill="#00c2d1" opacity="0.14" filter="url(#blur)"></circle>
  <g opacity="0.9">
    <rect x="420" y="170" width="760" height="560" rx="42" fill="rgba(255,255,255,0.06)" stroke="rgba(255,255,255,0.16)" stroke-width="2"></rect>
    <rect x="460" y="220" width="680" height="460" rx="26" fill="rgba(255,255,255,0.06)" stroke="rgba(255,255,255,0.12)" stroke-width="2"></rect>
    <rect x="500" y="260" width="220" height="160" rx="18" fill="rgba(255,255,255,0.08)"></rect>
    <rect x="740" y="260" width="360" height="24" rx="12" fill="rgba(255,255,255,0.18)"></rect>
    <rect x="740" y="300" width="280" height="16" rx="8" fill="rgba(255,255,255,0.12)"></rect>
    <rect x="740" y="330" width="320" height="16" rx="8" fill="rgba(255,255,255,0.12)"></rect>
    <rect x="500" y="440" width="600" height="18" rx="9" fill="rgba(255,255,255,0.10)"></rect>
    <rect x="500" y="472" width="540" height="18" rx="9" fill="rgba(255,255,255,0.10)"></rect>
    <rect x="500" y="504" width="480" height="18" rx="9" fill="rgba(255,255,255,0.10)"></rect>
    <rect x="500" y="560" width="640" height="120" rx="22" fill="rgba(255,255,255,0.07)" stroke="rgba(255,255,255,0.10)" stroke-width="2"></rect>
    <path d="M520 640 C 620 590, 740 690, 840 630 S 1040 600, 1120 650" fill="none" stroke="url(#acc)" stroke-width="6" stroke-linecap="round"></path>
    <circle cx="1120" cy="650" r="8" fill="#1e90ff"></circle>
  </g>
  <text x="80" y="920" font-family="ui-sans-serif, system-ui" font-size="22" fill="rgba(255,255,255,0.55)">
    Placeholder render — replace with AI-generated device mockup.
  </text>
</svg>
